Coordinates
version=1
nRows=14
nColumns=63
inDegrees=yes

Units are S.I. units (second, meters, Newtons, ...)
If the header above contains a line with 'inDegrees', this indicates whether rotational values are in degrees (yes) or radians (no).

endheader
time	pelvis_tilt	pelvis_list	pelvis_rotation	pelvis_tx	pelvis_ty	pelvis_tz	hip_flexion_r	hip_adduction_r	hip_rotation_r	knee_angle_r	knee_angle_r_beta	ankle_angle_r	subtalar_angle_r	mtp_angle_r	hip_flexion_l	hip_adduction_l	hip_rotation_l	knee_angle_l	knee_angle_l_beta	ankle_angle_l	subtalar_angle_l	mtp_angle_l	L5_S1_Flex_Ext	L5_S1_Lat_Bending	L5_S1_axial_rotation	L4_L5_Flex_Ext	L4_L5_Lat_Bending	L4_L5_axial_rotation	L3_L4_Flex_Ext	L3_L4_Lat_Bending	L3_L4_axial_rotation	L2_L3_Flex_Ext	L2_L3_Lat_Bending	L2_L3_axial_rotation	L1_L2_Flex_Ext	L1_L2_Lat_Bending	L1_L2_axial_rotation	L1_T12_Flex_Ext	L1_T12_Lat_Bending	L1_T12_axial_rotation	Abs_r3	Abs_r2	Abs_r1	Abs_t1	Abs_t2	neck_flexion	neck_bending	neck_rotation	arm_flex_r	arm_add_r	arm_rot_r	elbow_flex_r	pro_sup_r	wrist_flex_r	wrist_dev_r	arm_flex_l	arm_add_l	arm_rot_l	elbow_flex_l	pro_sup_l	wrist_flex_l	wrist_dev_l
2.024390	6.392154	-11.000976	112.155206	0.489243	0.725114	1.133657	25.124646	4.483433	-8.041817	21.043658	0.367281	33.364252	-10.541317	0.000000	26.414698	-2.749880	8.301730	23.086517	0.402936	34.122906	-3.227373	0.000000	-0.703205	-1.141471	3.936817	-1.305923	-1.518156	4.182869	-1.155296	-2.775372	4.182869	-0.803693	-2.775372	3.444715	-0.652997	-2.327687	3.198664	-0.401812	-1.768138	2.952613	-5.022926	-12.912545	21.895398	0.000000	0.000000	-17.143554	3.393294	-18.880521	43.603243	9.690635	-1.223914	141.244275	72.602093	-27.117056	3.983367	46.791639	33.649416	29.911434	104.623532	88.691702	-25.747327	-10.080628
2.048780	6.266198	-10.019984	111.857738	0.487403	0.728484	1.132053	23.112099	4.636636	-9.243599	19.560822	0.341401	32.926315	-8.244741	0.000000	24.399228	-3.130849	7.964618	21.476499	0.374836	33.556739	-2.986837	0.000000	-0.697330	-1.078346	3.721795	-1.295011	-1.434200	3.954407	-1.145643	-2.621890	3.954407	-0.796978	-2.621890	3.256571	-0.647541	-2.198963	3.023959	-0.398454	-1.670358	2.791346	-4.980958	-12.198466	20.699508	0.000000	0.000000	-16.836415	1.443221	-18.578782	43.488368	8.737480	1.393980	138.542627	77.713321	-28.655336	2.700491	44.803614	31.533471	28.332608	107.207352	88.651573	-26.973812	-9.152735
2.073171	6.230402	-9.056433	111.495868	0.485311	0.731878	1.130280	21.144390	4.850719	-10.573637	18.117388	0.316208	32.456423	-5.774724	0.000000	22.395278	-3.591719	7.551581	19.892011	0.347181	32.967671	-2.683159	0.000000	-0.682643	-0.996135	3.445839	-1.267737	-1.324860	3.661204	-1.121514	-2.422003	3.661204	-0.780193	-2.422003	3.015109	-0.633902	-2.031319	2.799744	-0.390062	-1.543013	2.584379	-4.876052	-11.268480	19.164722	0.000000	0.000000	-16.324356	-0.179521	-17.604551	43.349246	7.628078	4.634835	135.749144	82.567722	-29.536469	1.667389	42.284136	29.120815	26.145293	110.508625	88.522144	-27.665464	-8.152774
2.097561	6.258084	-8.141101	111.019664	0.483122	0.735231	1.128326	19.268072	5.108459	-11.959298	16.767662	0.292651	31.989452	-3.180926	0.000000	20.449419	-4.113899	6.979162	18.392160	0.321004	32.381276	-2.280926	0.000000	-0.658760	-0.901189	3.129254	-1.223383	-1.198582	3.324832	-1.082277	-2.191152	3.324832	-0.752897	-2.191152	2.738097	-0.611725	-1.837705	2.542519	-0.376416	-1.395942	2.346940	-4.705458	-10.194434	17.403971	0.000000	0.000000	-15.558449	-1.488172	-16.032679	43.062194	6.267944	8.243941	133.001497	86.568907	-29.604719	1.023594	39.312740	26.413543	23.411778	114.364226	88.376867	-27.926207	-7.118669
2.121951	6.332861	-7.292301	110.475609	0.480909	0.738451	1.126184	17.512677	5.388224	-13.371670	15.537904	0.271188	31.560715	-0.554630	0.000000	18.604442	-4.663916	6.281890	17.012265	0.296920	31.832003	-1.758367	0.000000	-0.622974	-0.800308	2.788902	-1.156925	-1.064410	2.963208	-1.023484	-1.945869	2.963208	-0.711997	-1.945869	2.440289	-0.578493	-1.631988	2.265982	-0.355967	-1.239677	2.091676	-4.449839	-9.053244	15.511033	0.000000	0.000000	-14.564089	-2.323158	-13.813217	42.481498	4.519787	11.903879	130.423439	89.112458	-29.108355	0.688079	36.028706	23.499183	20.281426	118.493056	88.276872	-27.772074	-5.964711
2.146341	6.413019	-6.505334	109.832582	0.478822	0.741500	1.123832	15.878749	5.669166	-14.722205	14.459434	0.252365	31.206855	2.055610	0.000000	16.850454	-5.219043	5.407019	15.766162	0.275171	31.352289	-1.086377	0.000000	-0.577454	-0.702372	2.467200	-1.072390	-0.934155	2.621400	-0.948700	-1.707748	2.621400	-0.659973	-1.707748	2.158800	-0.536224	-1.432277	2.004600	-0.329957	-1.087974	1.850400	-4.124699	-7.945374	13.721824	0.000000	0.000000	-13.364364	-2.621485	-11.038807	41.438068	2.343294	15.140700	128.097569	90.110560	-28.030635	0.663157	32.614399	20.496740	16.999589	122.527724	88.229446	-27.185945	-4.640736
2.170732	6.484815	-5.806831	109.144162	0.476963	0.744280	1.121375	14.419697	5.935353	-15.983486	13.570941	0.236858	30.935738	4.559352	0.000000	15.260901	-5.757775	4.404558	14.712980	0.256790	30.966042	-0.260161	0.000000	-0.519785	-0.613331	2.186305	-0.965292	-0.815730	2.322949	-0.853954	-1.491252	2.322949	-0.594062	-1.491252	1.913017	-0.482672	-1.250704	1.776373	-0.297005	-0.950049	1.639729	-3.712770	-6.938120	12.159573	0.000000	0.000000	-11.923141	-2.439085	-7.954448	39.843121	-0.182694	17.681725	126.049968	89.962385	-26.648540	0.743817	29.233243	17.524525	13.756749	126.104419	88.133538	-26.082332	-3.300730
2.195122	6.518857	-5.195845	108.487274	0.475393	0.746773	1.118890	13.135479	6.150219	-17.142849	12.878743	0.224776	30.734661	6.836303	0.000000	13.861692	-6.237018	3.341832	13.880456	0.242260	30.684366	0.709271	0.000000	-0.455015	-0.535490	1.951681	-0.845009	-0.712201	2.073661	-0.747544	-1.301989	2.073661	-0.520037	-1.301989	1.707721	-0.422527	-1.091970	1.585741	-0.259996	-0.829473	1.463761	-3.250128	-6.057565	10.854665	0.000000	0.000000	-10.185042	-1.971290	-4.825597	37.699753	-2.786781	19.345986	124.184917	89.179959	-24.776983	1.127828	26.010457	14.626514	10.664181	129.065895	87.939014	-24.454050	-1.948223
2.219512	6.495710	-4.690482	107.932233	0.474126	0.748981	1.116385	12.024334	6.277058	-18.209478	12.358174	0.215691	30.569844	8.785885	0.000000	12.669928	-6.613675	2.289286	13.251983	0.231291	30.492402	1.798123	0.000000	-0.385315	-0.469208	1.775261	-0.715569	-0.624047	1.886214	-0.633035	-1.140834	1.886214	-0.440377	-1.140834	1.553353	-0.357804	-0.956810	1.442399	-0.220169	-0.726804	1.331445	-2.752269	-5.307780	9.873467	0.000000	0.000000	-8.226546	-1.389497	-1.957070	35.011222	-5.178031	20.034662	122.432927	88.371551	-22.359580	1.943559	23.060638	11.855861	7.827036	131.322048	87.658903	-22.308113	-0.632455
2.243902	6.407719	-4.309881	107.498883	0.473165	0.750889	1.113857	11.095625	6.297305	-19.200162	12.005667	0.209538	30.410562	10.371143	0.000000	11.708172	-6.866189	1.300654	12.828149	0.223893	30.383638	2.952015	0.000000	-0.313952	-0.414735	1.674720	-0.583040	-0.551597	1.779390	-0.515792	-1.008386	1.779390	-0.358816	-1.008386	1.465380	-0.291536	-0.845727	1.360710	-0.179392	-0.642424	1.256040	-2.242527	-4.691563	9.314292	0.000000	0.000000	-6.170609	-0.761976	0.309152	31.854506	-7.325419	19.899714	120.749153	87.536063	-19.740710	2.884373	20.447995	9.295704	5.289914	132.805843	87.324467	-19.684031	0.669589
2.268293	6.237638	-4.069921	107.195939	0.472508	0.752469	1.111303	10.351946	6.192915	-20.119678	11.808735	0.206101	30.241725	11.587333	0.000000	10.997061	-6.971626	0.424591	12.614672	0.220168	30.343568	4.102343	0.000000	-0.243932	-0.374931	1.660585	-0.453007	-0.498658	1.764371	-0.400757	-0.911607	1.764371	-0.278790	-0.911607	1.453012	-0.226516	-0.764559	1.349225	-0.139383	-0.580768	1.245438	-1.742385	-4.241293	9.235674	0.000000	0.000000	-4.126674	-0.125676	1.707014	28.311299	-9.250118	19.142259	119.077956	86.587800	-17.231136	3.828396	18.183883	7.000708	3.048876	133.409613	87.006386	-16.672046	1.811513
2.292683	5.970942	-3.953080	107.026952	0.472163	0.753717	1.108746	9.772443	5.960812	-20.958461	11.750712	0.205089	30.065874	12.437001	0.000000	10.526668	-6.918144	-0.281635	12.615437	0.220181	30.341599	5.159268	0.000000	-0.179478	-0.351128	1.727998	-0.333309	-0.467000	1.835998	-0.294864	-0.853732	1.835998	-0.205125	-0.853732	1.511998	-0.166663	-0.716020	1.403998	-0.102554	-0.543897	1.295999	-1.281993	-3.972027	9.610607	0.000000	0.000000	-2.136271	0.356131	2.070229	24.472444	-10.913631	18.006946	117.225331	85.759984	-14.833278	4.749694	16.212396	4.975656	1.000876	133.053621	86.767712	-13.397035	2.637671
2.317073	5.616290	-3.926812	106.963670	0.472131	0.754612	1.106273	9.333571	5.628663	-21.689065	11.813496	0.206184	29.905777	12.958776	0.000000	10.283728	-6.728705	-0.787105	12.845936	0.224204	30.370498	6.027179	0.000000	-0.121380	-0.340408	1.872829	-0.225414	-0.452742	1.989881	-0.199415	-0.827667	1.989881	-0.138725	-0.827667	1.638726	-0.112713	-0.694159	1.521674	-0.069356	-0.527291	1.404622	-0.867003	-3.850758	10.416115	0.000000	0.000000	-0.208081	0.482756	1.406098	20.433266	-12.247882	16.536717	114.920343	85.456992	-12.465719	5.636070	14.572128	3.133128	-0.715498	131.603359	86.641481	-10.523425	2.959376
2.341463	5.182505	-3.929131	106.969469	0.472372	0.755170	1.103988	8.972988	5.218402	-22.327576	11.966364	0.208852	29.807091	13.274316	0.000000	10.195933	-6.433739	-1.096429	13.265335	0.231524	30.423823	6.666923	0.000000	-0.073115	-0.339563	2.083789	-0.135783	-0.451619	2.214025	-0.120121	-0.825614	2.214025	-0.083564	-0.825614	1.823315	-0.067895	-0.692437	1.693078	-0.041778	-0.525984	1.562841	-0.522256	-3.841208	11.589407	0.000000	0.000000	1.699199	0.178429	-0.050848	16.377985	-13.279870	14.713998	111.889573	85.450160	-10.385933	6.321147	13.413563	1.423713	-1.836663	128.800248	86.631968	-9.017966	2.498051
